<?xml version="1.0" encoding="utf-8"?>
<!-- Generator: Adobe Illustrator 21.1.0, SVG Export Plug-In . SVG Version: 6.00 Build 0)  -->
<svg version="1.1" id="Layer_1" xmlns="http://www.w3.org/2000/svg" xmlns:xlink="http://www.w3.org/1999/xlink" x="0px" y="0px"
	 viewBox="0 0 739 523.6" style="enable-background:new 0 0 739 523.6;" xml:space="preserve">
<style type="text/css">
	.st0{fill:none;stroke:#FF0000;stroke-width:3.543310e-02;}
	.st1{font-family:'CenturyGothic';}
	.st2{font-size:24px;}
	.st3{fill:none;stroke:#000000;}
</style>
<g id="Layer_1_2_">
	<g id="Layer_1_1_">
		<g transform="translate(22.5000185, 22.5000185) ">
			<polygon class="st0" points="-4.5,-4.5 32.4,-4.5 32.4,4 69.2,4 69.2,-4.5 91.9,-4.5 91.9,4 114.6,4 114.6,-4.5 137.2,-4.5 
				137.2,4 174.1,4 174.1,-4.5 210.9,-4.5 210.9,32.4 202.4,32.4 202.4,69.2 210.9,69.2 210.9,91.9 202.4,91.9 202.4,114.6 
				210.9,114.6 210.9,137.2 202.4,137.2 202.4,174.1 210.9,174.1 210.9,210.9 174.1,210.9 174.1,202.4 137.2,202.4 137.2,210.9 
				114.6,210.9 114.6,202.4 91.9,202.4 91.9,210.9 69.2,210.9 69.2,202.4 32.4,202.4 32.4,210.9 -4.5,210.9 -4.5,174.1 4,174.1 
				4,137.2 -4.5,137.2 -4.5,114.6 4,114.6 4,91.9 -4.5,91.9 -4.5,69.2 4,69.2 4,32.4 -4.5,32.4 			"/>
		</g>
		<g transform="translate(291.79157849999996, 22.5000185) ">
			<polygon class="st0" points="-58.4,-4.5 -21.5,-4.5 -21.5,4 15.3,4 15.3,-4.5 38,-4.5 38,4 60.7,4 60.7,-4.5 83.4,-4.5 83.4,4 
				120.2,4 120.2,-4.5 157.1,-4.5 157.1,32.4 148.6,32.4 148.6,69.2 157.1,69.2 157.1,91.9 148.6,91.9 148.6,114.6 157.1,114.6 
				157.1,137.2 148.6,137.2 148.6,174.1 157.1,174.1 157.1,210.9 120.2,210.9 120.2,202.4 83.4,202.4 83.4,210.9 60.7,210.9 
				60.7,202.4 38,202.4 38,210.9 15.3,210.9 15.3,202.4 -21.5,202.4 -21.5,210.9 -58.4,210.9 -58.4,174.1 -49.9,174.1 -49.9,137.2 
				-58.4,137.2 -58.4,114.6 -49.9,114.6 -49.9,91.9 -58.4,91.9 -58.4,69.2 -49.9,69.2 -49.9,32.4 -58.4,32.4 			"/>
		</g>
		<g transform="translate(561.0831385, 22.5000185) ">
			<polygon class="st0" points="-103.7,-4.5 -83.9,-4.5 -83.9,4 -55.5,4 -55.5,-4.5 -32.8,-4.5 -32.8,4 -10.2,4 -10.2,-4.5 
				12.5,-4.5 12.5,4 35.2,4 35.2,-4.5 57.9,-4.5 57.9,4 80.5,4 80.5,-4.5 103.2,-4.5 103.2,4 131.6,4 131.6,-4.5 151.4,-4.5 
				151.4,32.4 159.9,32.4 159.9,69.2 151.4,69.2 151.4,91.9 159.9,91.9 159.9,114.6 151.4,114.6 151.4,137.2 159.9,137.2 
				159.9,174.1 151.4,174.1 151.4,210.9 131.6,210.9 131.6,202.4 103.2,202.4 103.2,210.9 80.5,210.9 80.5,202.4 57.9,202.4 
				57.9,210.9 35.2,210.9 35.2,202.4 12.5,202.4 12.5,210.9 -10.2,210.9 -10.2,202.4 -32.8,202.4 -32.8,210.9 -55.5,210.9 
				-55.5,202.4 -83.9,202.4 -83.9,210.9 -103.7,210.9 -103.7,174.1 -112.2,174.1 -112.2,137.2 -103.7,137.2 -103.7,114.6 
				-112.2,114.6 -112.2,91.9 -103.7,91.9 -103.7,69.2 -112.2,69.2 -112.2,32.4 -103.7,32.4 			"/>
		</g>
		<g transform="translate(561.0831385, 291.79157849999996) ">
			<polygon class="st0" points="-103.7,-58.4 -83.9,-58.4 -83.9,-49.9 -55.5,-49.9 -55.5,-58.4 -32.8,-58.4 -32.8,-49.9 
				-10.2,-49.9 -10.2,-58.4 12.5,-58.4 12.5,-49.9 35.2,-49.9 35.2,-58.4 57.9,-58.4 57.9,-49.9 80.5,-49.9 80.5,-58.4 103.2,-58.4 
				103.2,-49.9 131.6,-49.9 131.6,-58.4 151.4,-58.4 151.4,-21.5 159.9,-21.5 159.9,15.3 151.4,15.3 151.4,38 159.9,38 159.9,60.7 
				151.4,60.7 151.4,83.4 159.9,83.4 159.9,120.2 151.4,120.2 151.4,157.1 131.6,157.1 131.6,148.6 103.2,148.6 103.2,157.1 
				80.5,157.1 80.5,148.6 57.9,148.6 57.9,157.1 35.2,157.1 35.2,148.6 12.5,148.6 12.5,157.1 -10.2,157.1 -10.2,148.6 -32.8,148.6 
				-32.8,157.1 -55.5,157.1 -55.5,148.6 -83.9,148.6 -83.9,157.1 -103.7,157.1 -103.7,120.2 -112.2,120.2 -112.2,83.4 -103.7,83.4 
				-103.7,60.7 -112.2,60.7 -112.2,38 -103.7,38 -103.7,15.3 -112.2,15.3 -112.2,-21.5 -103.7,-21.5 			"/>
		</g>
		<g transform="translate(22.5000185, 291.79157849999996) ">
			<polygon class="st0" points="4,-49.9 32.4,-49.9 32.4,-58.4 69.2,-58.4 69.2,-49.9 91.9,-49.9 91.9,-58.4 114.6,-58.4 
				114.6,-49.9 137.2,-49.9 137.2,-58.4 174.1,-58.4 174.1,-49.9 202.4,-49.9 202.4,-30 210.9,-30 210.9,-1.7 202.4,-1.7 202.4,21 
				210.9,21 210.9,43.7 202.4,43.7 202.4,66.4 210.9,66.4 210.9,89 202.4,89 202.4,111.7 210.9,111.7 210.9,134.4 202.4,134.4 
				202.4,157.1 210.9,157.1 210.9,185.4 202.4,185.4 202.4,205.3 174.1,205.3 174.1,213.8 137.2,213.8 137.2,205.3 114.6,205.3 
				114.6,213.8 91.9,213.8 91.9,205.3 69.2,205.3 69.2,213.8 32.4,213.8 32.4,205.3 4,205.3 4,185.4 -4.5,185.4 -4.5,157.1 4,157.1 
				4,134.4 -4.5,134.4 -4.5,111.7 4,111.7 4,89 -4.5,89 -4.5,66.4 4,66.4 4,43.7 -4.5,43.7 -4.5,21 4,21 4,-1.7 -4.5,-1.7 -4.5,-30 
				4,-30 			"/>
		</g>
		<g transform="translate(291.79157849999996, 291.79157849999996) ">
			<polygon class="st0" points="-49.9,-49.9 -21.5,-49.9 -21.5,-58.4 15.3,-58.4 15.3,-49.9 38,-49.9 38,-58.4 60.7,-58.4 
				60.7,-49.9 83.4,-49.9 83.4,-58.4 120.2,-58.4 120.2,-49.9 148.6,-49.9 148.6,-30 157.1,-30 157.1,-1.7 148.6,-1.7 148.6,21 
				157.1,21 157.1,43.7 148.6,43.7 148.6,66.4 157.1,66.4 157.1,89 148.6,89 148.6,111.7 157.1,111.7 157.1,134.4 148.6,134.4 
				148.6,157.1 157.1,157.1 157.1,185.4 148.6,185.4 148.6,205.3 120.2,205.3 120.2,213.8 83.4,213.8 83.4,205.3 60.7,205.3 
				60.7,213.8 38,213.8 38,205.3 15.3,205.3 15.3,213.8 -21.5,213.8 -21.5,205.3 -49.9,205.3 -49.9,185.4 -58.4,185.4 -58.4,157.1 
				-49.9,157.1 -49.9,134.4 -58.4,134.4 -58.4,111.7 -49.9,111.7 -49.9,89 -58.4,89 -58.4,66.4 -49.9,66.4 -49.9,43.7 -58.4,43.7 
				-58.4,21 -49.9,21 -49.9,-1.7 -58.4,-1.7 -58.4,-30 -49.9,-30 			"/>
		</g>
	</g>
</g>
<rect x="63.7" y="171.1" class="st0" width="36.9" height="42.5"/>
<rect x="154.4" y="171.1" class="st0" width="31.2" height="42.5"/>
<path class="st0" d="M57,444.2L57,444.2c-2.3,0-4.3-2.3-4.3-5.1V301.9c0-2.8,1.9-5.1,4.3-5.1l0,0c2.3,0,4.3,2.3,4.3,5.1V439
	C61.3,441.9,59.4,444.2,57,444.2z"/>
<rect x="91.1" y="415.7" class="st0" width="34" height="34"/>
<rect x="152.2" y="415.7" class="st0" width="34" height="34"/>
<circle class="st0" cx="139.5" cy="320.9" r="11.3"/>
<g>
	<g>
		<path d="M57,272.9c2.3,0,4.1-1.8,4.1-4.1c0-2.3-1.8-4.1-4.1-4.1c-2.3,0-4.1,1.8-4.1,4.1C52.9,271,54.8,272.9,57,272.9z M57,265.9
			c1.6,0,2.9,1.3,2.9,2.9s-1.3,2.9-2.9,2.9c-1.6,0-2.9-1.3-2.9-2.9C54.1,267.2,55.4,265.9,57,265.9z"/>
		<path d="M57.6,262.8v-1.9c0-0.3-0.3-0.6-0.6-0.6c-0.3,0-0.6,0.3-0.6,0.6v1.9c0,0.3,0.3,0.6,0.6,0.6
			C57.4,263.4,57.6,263.1,57.6,262.8z"/>
		<path d="M56.4,274.8v1.9c0,0.3,0.3,0.6,0.6,0.6c0.3,0,0.6-0.3,0.6-0.6v-1.9c0-0.3-0.3-0.6-0.6-0.6
			C56.7,274.2,56.4,274.4,56.4,274.8z"/>
		<path d="M61.7,264.9l1.3-1.3c0.2-0.2,0.2-0.6,0-0.9c-0.2-0.2-0.6-0.2-0.9,0l-1.3,1.3c-0.2,0.2-0.2,0.6,0,0.9
			c0.1,0.1,0.3,0.2,0.4,0.2C61.5,265.1,61.6,265.1,61.7,264.9z"/>
		<path d="M51,274.8c0.1,0.1,0.3,0.2,0.4,0.2c0.1,0,0.3-0.1,0.4-0.2l1.3-1.3c0.2-0.2,0.2-0.6,0-0.9c-0.2-0.2-0.6-0.2-0.9,0l-1.3,1.3
			C50.8,274.2,50.8,274.6,51,274.8z"/>
		<path d="M65.5,268.8c0-0.3-0.3-0.6-0.6-0.6H63c-0.3,0-0.6,0.3-0.6,0.6c0,0.3,0.3,0.6,0.6,0.6h1.9
			C65.3,269.4,65.5,269.1,65.5,268.8z"/>
		<path d="M49.1,269.4H51c0.3,0,0.6-0.3,0.6-0.6c0-0.3-0.3-0.6-0.6-0.6h-1.9c-0.3,0-0.6,0.3-0.6,0.6S48.8,269.4,49.1,269.4z"/>
		<path d="M62.6,275c0.1,0,0.3-0.1,0.4-0.2c0.2-0.2,0.2-0.6,0-0.9l-1.3-1.3c-0.2-0.2-0.6-0.2-0.9,0c-0.2,0.2-0.2,0.6,0,0.9l1.3,1.3
			C62.3,274.9,62.5,275,62.6,275z"/>
		<path d="M53.2,264.9c0.2-0.2,0.2-0.6,0-0.9l-1.3-1.3c-0.2-0.2-0.6-0.2-0.9,0c-0.2,0.2-0.2,0.6,0,0.9l1.3,1.3
			c0.1,0.1,0.3,0.2,0.4,0.2C52.9,265.1,53.1,265.1,53.2,264.9z"/>
	</g>
</g>
<g>
	<g>
		<path d="M56.9,475.6c1.5,0,2.7-1.2,2.7-2.7s-1.2-2.7-2.7-2.7s-2.7,1.2-2.7,2.7S55.4,475.6,56.9,475.6z M56.9,471
			c1.1,0,1.9,0.9,1.9,1.9c0,1.1-0.9,1.9-1.9,1.9s-1.9-0.9-1.9-1.9C55,471.8,55.9,471,56.9,471z"/>
		<path d="M57.3,468.9v-1.3c0-0.2-0.2-0.4-0.4-0.4c-0.2,0-0.4,0.2-0.4,0.4v1.3c0,0.2,0.2,0.4,0.4,0.4
			C57.2,469.3,57.3,469.1,57.3,468.9z"/>
		<path d="M56.5,476.9v1.3c0,0.2,0.2,0.4,0.4,0.4c0.2,0,0.4-0.2,0.4-0.4v-1.3c0-0.2-0.2-0.4-0.4-0.4
			C56.7,476.5,56.5,476.7,56.5,476.9z"/>
		<path d="M60.1,470.4l0.9-0.9c0.2-0.2,0.2-0.4,0-0.6c-0.2-0.2-0.4-0.2-0.6,0l-0.9,0.9c-0.2,0.2-0.2,0.4,0,0.6
			c0.1,0.1,0.2,0.1,0.3,0.1S60,470.4,60.1,470.4z"/>
		<path d="M52.9,476.9c0.1,0.1,0.2,0.1,0.3,0.1s0.2,0,0.3-0.1l0.9-0.9c0.2-0.2,0.2-0.4,0-0.6c-0.2-0.2-0.4-0.2-0.6,0l-0.9,0.9
			C52.8,476.5,52.8,476.8,52.9,476.9z"/>
		<path d="M62.6,472.9c0-0.2-0.2-0.4-0.4-0.4h-1.3c-0.2,0-0.4,0.2-0.4,0.4s0.2,0.4,0.4,0.4h1.3C62.4,473.3,62.6,473.1,62.6,472.9z"
			/>
		<path d="M51.7,473.3H53c0.2,0,0.4-0.2,0.4-0.4s-0.2-0.4-0.4-0.4h-1.3c-0.2,0-0.4,0.2-0.4,0.4S51.5,473.3,51.7,473.3z"/>
		<path d="M60.7,477c0.1,0,0.2,0,0.3-0.1c0.2-0.2,0.2-0.4,0-0.6l-0.9-0.9c-0.2-0.2-0.4-0.2-0.6,0c-0.2,0.2-0.2,0.4,0,0.6l0.9,0.9
			C60.5,477,60.6,477,60.7,477z"/>
		<path d="M54.4,470.4c0.2-0.2,0.2-0.4,0-0.6l-0.9-0.9c-0.2-0.2-0.4-0.2-0.6,0c-0.2,0.2-0.2,0.4,0,0.6l0.9,0.9
			c0.1,0.1,0.2,0.1,0.3,0.1S54.3,470.4,54.4,470.4z"/>
	</g>
</g>
<path d="M162.1,473.3l7.1-7.1l7.1,7.1H162.1z"/>
<path d="M115.2,466.2l-7.1,7.1l-7.1-7.1H115.2z"/>
<text transform="matrix(1 0 0 1 284.7996 127.0997)" class="st1 st2">Ambihue</text>
<line class="st3" x1="386.8" y1="129.9" x2="284.8" y2="129.9"/>
<g>
	<g>
		<path d="M384.3,110.8v-3.2c0-0.6-0.4-1-1-1s-1,0.4-1,1v3.2c0,0.6,0.4,1,1,1S384.3,111.4,384.3,110.8z"/>
		<path d="M391.1,114.5l2.2-2.2c0.4-0.4,0.4-1,0-1.4s-1-0.4-1.4,0l-2.2,2.2c-0.4,0.4-0.4,1,0,1.4c0.2,0.2,0.4,0.3,0.7,0.3
			C390.6,114.8,390.9,114.7,391.1,114.5z"/>
		<path d="M397.5,120.9c0-0.6-0.4-1-1-1h-3.2c-0.6,0-1,0.4-1,1s0.4,1,1,1h3.2C397,121.9,397.5,121.4,397.5,120.9z"/>
		<path d="M392.6,131.2c0.2,0,0.5-0.1,0.7-0.3c0.4-0.4,0.4-1,0-1.4l-2.2-2.2c-0.4-0.4-1-0.4-1.4,0s-0.4,1,0,1.4l2.2,2.2
			C392.1,131.1,392.4,131.2,392.6,131.2z"/>
		<path d="M376.9,114.5c0.4-0.4,0.4-1,0-1.4l-2.2-2.2c-0.4-0.4-1-0.4-1.4,0s-0.4,1,0,1.4l2.2,2.2c0.2,0.2,0.4,0.3,0.7,0.3
			S376.7,114.7,376.9,114.5z"/>
	</g>
</g>
</svg>
